Coordinates
version=1
nRows=17
nColumns=34
inDegrees=yes

Units are S.I. units (second, meters, Newtons, ...)
Angles are in degrees.

endheader
time	pelvis_tilt	pelvis_list	pelvis_rotation	pelvis_tx	pelvis_ty	pelvis_tz	hip_flexion_r	hip_adduction_r	hip_rotation_r	knee_angle_r	ankle_angle_r	subtalar_angle_r	mtp_angle_r	hip_flexion_l	hip_adduction_l	hip_rotation_l	knee_angle_l	socket_flexion	socket_adduction	socket_rotation	socket_tx	socket_ty	socket_tz	pros_ankle_rx	pros_ankle_ry	pros_ankle_rz	pros_ankle_tx	pros_ankle_ty	pros_ankle_tz	foot_flex	lumbar_extension	lumbar_bending	lumbar_rotation
      0.90000000	      3.79298078	     -8.28269505	     10.79427999	      0.41619767	      1.04789252	      0.37298538	      5.70376064	     10.45352510	    -14.37544448	    -13.83019288	      7.32367783	      9.97607407	     11.68452631	     17.35631193	    -14.27315963	      4.29728182	    -74.97095740	      0.00000000	      0.00000000	      0.00000000	      0.00000000	     -0.00216929	      0.00000000	      0.00000000	      0.00000000	      0.00000000	      0.00000000	      0.00000000	      0.00000000	      4.38692956	    -12.72004439	      6.51537981	    -26.27462504
      0.90416667	      3.71310550	     -7.97699772	     10.76731614	      0.42146162	      1.04913353	      0.37276956	      5.18488251	     10.19265448	    -14.37743753	    -13.44084334	      7.38210581	     10.19354013	     11.73214392	     17.87737799	    -13.64554210	      4.42317038	    -74.57677009	      0.00000000	      0.00000000	      0.00000000	      0.00000000	     -0.00194268	      0.00000000	      0.00000000	      0.00000000	      0.00000000	      0.00000000	      0.00000000	      0.00000000	      4.33627378	    -12.70562224	      6.17670567	    -26.20945378
      0.90833333	      3.62329825	     -7.78070607	     10.66593123	      0.42667183	      1.05030729	      0.37260556	      4.78744570	     10.02355222	    -14.41280905	    -13.20002117	      7.42445795	     10.32160786	     11.75888782	     18.36931945	    -13.17371631	      4.46365534	    -74.09577435	      0.00000000	      0.00000000	      0.00000000	      0.00000000	     -0.00191927	      0.00000000	      0.00000000	      0.00000000	      0.00000000	      0.00000000	      0.00000000	      0.00000000	      4.35023859	    -12.78093421	      6.03281143	    -26.17834988
      0.91250000	      3.99660842	     -7.28321579	     10.92038702	      0.43244589	      1.05235443	      0.37202194	      3.44778425	      9.62920735	    -15.06045635	    -12.28506301	      7.22309457	     11.45882064	     12.34043742	     18.22423444	    -12.39615868	      4.70550262	    -73.38387561	      0.00000000	      0.00000000	      0.00000000	      0.00000000	     -0.00213615	      0.00000000	      0.00000000	      0.00000000	      0.00000000	      0.00000000	      0.00000000	      0.00000000	      4.23284943	    -13.09616140	      5.39609204	    -26.48977447
      0.91666667	      3.87203288	     -7.02874203	     10.84649900	      0.43747791	      1.05338797	      0.37179229	      3.06838480	      9.39651908	    -15.00972377	    -12.01747663	      7.31837995	     11.59849141	     12.39960899	     18.77545681	    -11.81497847	      4.79650640	    -72.88601395	      0.00000000	      0.00000000	      0.00000000	      0.00000000	     -0.00185039	      0.00000000	      0.00000000	      0.00000000	      0.00000000	      0.00000000	      0.00000000	      0.00000000	      4.20340991	    -13.08348699	      5.12961659	    -26.37910349
      0.92083333	      3.73994090	     -6.73675279	     10.77306314	      0.44273442	      1.05446770	      0.37161946	      2.62416743	      9.13511983	    -15.00989538	    -11.65664791	      7.34730326	     11.79222792	     12.45457560	     19.24841566	    -11.21194086	      4.86319569	    -72.26387866	      0.00000000	      0.00000000	      0.00000000	      0.00000000	     -0.00174023	      0.00000000	      0.00000000	      0.00000000	      0.00000000	      0.00000000	      0.00000000	      0.00000000	      4.15426900	    -13.00269407	      4.76780639	    -26.28992623
      0.92500000	      3.65852466	     -6.44907589	     10.71415927	      0.44809372	      1.05560321	      0.37144664	      2.09984830	      8.89274735	    -15.05462426	    -11.23539216	      7.29016366	     12.07791611	     12.53181462	     19.61972630	    -10.63736992	      4.90914539	    -71.55785089	      0.00000000	      0.00000000	      0.00000000	      0.00000000	     -0.00168925	      0.00000000	      0.00000000	      0.00000000	      0.00000000	      0.00000000	      0.00000000	      0.00000000	      4.10725139	    -12.89504481	      4.32907707	    -26.23970384
      0.92916667	      3.89221611	     -6.10520536	     10.74186447	      0.45356001	      1.05724954	      0.37123276	      1.10029255	      8.65309807	    -15.39845876	    -10.57232249	      7.10516875	     12.79890728	     13.00623809	     19.58825455	    -10.08667675	      4.95778649	    -70.73020204	      0.00000000	      0.00000000	      0.00000000	      0.00000000	     -0.00176183	      0.00000000	      0.00000000	      0.00000000	      0.00000000	      0.00000000	      0.00000000	      0.00000000	      4.06763576	    -13.28425480	      3.90798835	    -26.35391785
      0.93333333	      3.78476210	     -5.86231456	     10.65435398	      0.45870411	      1.05825543	      0.37098479	      0.70007182	      8.42376035	    -15.39287227	    -10.30453892	      7.11630229	     12.97215045	     13.10429320	     19.99099611	     -9.54635999	      5.02157259	    -69.96788644	      0.00000000	      0.00000000	      0.00000000	      0.00000000	     -0.00161573	      0.00000000	      0.00000000	      0.00000000	      0.00000000	      0.00000000	      0.00000000	      0.00000000	      4.04123348	    -13.15462135	      3.62473130	    -26.25752967
      0.93750000	      3.68620363	     -5.62317647	     10.56416289	      0.46385842	      1.05923187	      0.37081891	      0.26233329	      8.21667752	    -15.37901101	     -9.97933668	      7.09588695	     13.19557587	     13.18511096	     20.37197709	     -9.03693132	      5.06030270	    -69.16720536	      0.00000000	      0.00000000	      0.00000000	      0.00000000	     -0.00148284	      0.00000000	      0.00000000	      0.00000000	      0.00000000	      0.00000000	      0.00000000	      0.00000000	      4.00111924	    -13.09617858	      3.32794299	    -26.17114315
      0.94166667	      3.66782872	     -5.35642761	     10.45157958	      0.46919663	      1.06035178	      0.37073166	     -0.33278056	      8.00230329	    -15.43643791	     -9.52975749	      6.94105703	     13.55462380	     13.34169386	     20.58346077	     -8.55581469	      5.02430112	    -68.25717806	      0.00000000	      0.00000000	      0.00000000	      0.00000000	     -0.00143931	      0.00000000	      0.00000000	      0.00000000	      0.00000000	      0.00000000	      0.00000000	      0.00000000	      3.99128201	    -13.11200337	      3.00056103	    -26.11002927
      0.94583333	      3.64533328	     -5.13424723	     10.35827636	      0.47441799	      1.06139825	      0.37057034	     -0.88409105	      7.82361074	    -15.48320188	     -9.13662029	      6.87641724	     13.83296715	     13.48725216	     20.82273302	     -8.10921617	      5.04142191	    -67.33387961	      0.00000000	      0.00000000	      0.00000000	      0.00000000	     -0.00132936	      0.00000000	      0.00000000	      0.00000000	      0.00000000	      0.00000000	      0.00000000	      0.00000000	      3.98319565	    -13.14343527	      2.69949965	    -26.03102090
      0.95000000	      3.59219208	     -4.92759907	     10.26396319	      0.47953549	      1.06231682	      0.37042116	     -1.35603036	      7.65822577	    -15.46723696	     -8.81186083	      6.86454337	     14.05634483	     13.57845527	     21.10238845	     -7.66413090	      5.09524945	    -66.40061626	      0.00000000	      0.00000000	      0.00000000	      0.00000000	     -0.00122480	      0.00000000	      0.00000000	      0.00000000	      0.00000000	      0.00000000	      0.00000000	      0.00000000	      3.92537252	    -13.11028865	      2.44585603	    -25.92644059
      0.95416667	      3.82780123	     -4.67032355	     10.19665280	      0.48478377	      1.06373212	      0.37030866	     -2.28270055	      7.51094129	    -15.59131579	     -8.22230001	      6.59707647	     14.51397475	     14.07782193	     20.96875122	     -7.26931842	      5.07739445	    -65.30375216	      0.00000000	      0.00000000	      0.00000000	      0.00000000	     -0.00129589	      0.00000000	      0.00000000	      0.00000000	      0.00000000	      0.00000000	      0.00000000	      0.00000000	      3.94213806	    -13.48273876	      2.14654092	    -25.87134054
      0.95833333	      3.69658669	     -4.51743430	     10.05783947	      0.48995416	      1.06445997	      0.37020585	     -2.63114270	      7.37205014	    -15.56448435	     -7.95437668	      6.57479521	     14.68685670	     14.14558972	     21.29707415	     -6.90668595	      5.08463079	    -64.28567792	      0.00000000	      0.00000000	      0.00000000	      0.00000000	     -0.00118073	      0.00000000	      0.00000000	      0.00000000	      0.00000000	      0.00000000	      0.00000000	      0.00000000	      3.93496815	    -13.32895712	      1.92015199	    -25.76099206
      0.96250000	      3.63263641	     -4.55096638	      9.94172181	      0.49462713	      1.06506682	      0.37000829	     -2.83169487	      7.40416376	    -15.54840599	     -7.97486531	      6.56967078	     14.73014907	     14.15892372	     21.69758525	     -6.73473775	      5.19467498	    -63.37977144	      0.00000000	      0.00000000	      0.00000000	      0.00000000	     -0.00086724	      0.00000000	      0.00000000	      0.00000000	      0.00000000	      0.00000000	      0.00000000	      0.00000000	      4.05104894	    -13.43824376	      1.93676203	    -25.73179179
      0.96666667	      3.48139542	     -4.23905943	      9.75066245	      0.50036181	      1.06590192	      0.37010685	     -3.40499017	      7.14098226	    -15.49654235	     -7.35219488	      6.44404628	     15.11936365	     14.22770946	     21.81606319	     -6.27185602	      5.06207623	    -62.08199523	      0.00000000	      0.00000000	      0.00000000	      0.00000000	     -0.00099029	      0.00000000	      0.00000000	      0.00000000	      0.00000000	      0.00000000	      0.00000000	      0.00000000	      3.94853660	    -13.07620699	      1.48148412	    -25.50517827
